<?xml version="1.0" encoding="UTF-8"?>
<svg version="1.1" xmlns="http://www.w3.org/2000/svg" width="1238" height="286">
<path d="M0 0 C1.44767588 0.00138269 1.44767588 0.00138269 2.92459774 0.00279331 C4.02592069 0.00141582 5.12724363 0.00003832 6.26194 -0.00138092 C8.09742606 0.00401624 8.09742606 0.00401624 9.96999264 0.00952244 C11.2686095 0.0094019 12.56722635 0.00928137 13.90519524 0.00915718 C17.42939972 0.0089307 20.95357049 0.01474161 24.47776699 0.02176762 C27.78039109 0.02744743 31.08301365 0.02772991 34.38564205 0.02844334 C44.05495807 0.03369817 53.72426777 0.04765922 63.39357662 0.06054783 C95.78513912 0.09148533 95.78513912 0.09148533 128.83107662 0.12304783 C128.83107662 43.68304783 128.83107662 87.24304783 128.83107662 132.12304783 C85.27107662 132.12304783 41.71107662 132.12304783 -3.16892338 132.12304783 C-3.18954838 110.52867283 -3.21017338 88.93429783 -3.23142338 66.68554783 C-3.24507938 56.44052219 -3.24507938 56.44052219 -3.25901127 45.98852634 C-3.26352787 37.67761326 -3.26352787 37.67761326 -3.2643671 33.79258823 C-3.26590732 31.0667807 -3.26906466 28.34101871 -3.27449894 25.61522007 C-3.28260033 21.49745908 -3.28283097 17.37973277 -3.28244877 13.26196384 C-3.28604688 12.03830647 -3.28964499 10.81464911 -3.29335213 9.55391121 C-3.29197463 8.45258826 -3.29059713 7.35126532 -3.28917789 6.21656895 C-3.29009969 5.25145169 -3.29102148 4.28633444 -3.29197121 3.29197121 C-3.12555521 0.35861156 -2.93335965 0.16641599 0 0 Z M52.83107662 56.12304783 C52.83107662 62.72304783 52.83107662 69.32304783 52.83107662 76.12304783 C59.43107662 76.12304783 66.03107662 76.12304783 72.83107662 76.12304783 C72.83107662 69.52304783 72.83107662 62.92304783 72.83107662 56.12304783 C66.23107662 56.12304783 59.63107662 56.12304783 52.83107662 56.12304783 Z " fill="#F8F8F8" transform="translate(781.1689233779907,9.876952171325684)"/>
<path d="M0 0 C43.23 0 86.46 0 131 0 C131 7.26 131 14.52 131 22 C127.82938988 22.79265253 125.73653218 23.12407794 122.57073975 23.12025452 C121.24988373 23.12231651 121.24988373 23.12231651 119.90234375 23.12442017 C118.94424805 23.12082489 117.98615234 23.11722961 116.99902344 23.11352539 C115.98406799 23.11367142 114.96911255 23.11381744 113.92340088 23.1139679 C110.56870384 23.11327124 107.21406234 23.10549036 103.859375 23.09765625 C101.53338654 23.09579119 99.20739769 23.0943677 96.88140869 23.09336853 C90.75922562 23.08955027 84.63706627 23.07972584 78.51489258 23.06866455 C72.26774415 23.05843561 66.02059189 23.05386773 59.7734375 23.04882812 C47.5156129 23.03810298 35.25781213 23.02051173 23 23 C22.67 33.56 22.34 44.12 22 55 C57.97 55 93.94 55 131 55 C131 62.26 131 69.52 131 77 C95.03 77 59.06 77 22 77 C22 87.89 22 98.78 22 110 C57.97 110 93.94 110 131 110 C131 117.26 131 124.52 131 132 C87.77 132 44.54 132 0 132 C0 88.44 0 44.88 0 0 Z " fill="#F3F3F3" transform="translate(172,10)"/>
<path d="M0 0 C1.44767588 0.00138269 1.44767588 0.00138269 2.92459774 0.00279331 C4.02592069 0.00141582 5.12724363 0.00003832 6.26194 -0.00138092 C8.09742606 0.00401624 8.09742606 0.00401624 9.96999264 0.00952244 C11.2686095 0.0094019 12.56722635 0.00928137 13.90519524 0.00915718 C17.42939972 0.0089307 20.95357049 0.01474161 24.47776699 0.02176762 C27.78039109 0.02744743 31.08301365 0.02772991 34.38564205 0.02844334 C44.05495807 0.03369817 53.72426777 0.04765922 63.39357662 0.06054783 C95.78513912 0.09148533 95.78513912 0.09148533 128.83107662 0.12304783 C128.83107662 43.68304783 128.83107662 87.24304783 128.83107662 132.12304783 C121.57107662 132.12304783 114.31107662 132.12304783 106.83107662 132.12304783 C106.83107662 113.97304783 106.83107662 95.82304783 106.83107662 77.12304783 C78.12107662 77.12304783 49.41107662 77.12304783 19.83107662 77.12304783 C19.83107662 95.27304783 19.83107662 113.42304783 19.83107662 132.12304783 C12.57107662 132.12304783 5.31107662 132.12304783 -2.16892338 132.12304783 C-3.84858156 130.44338965 -3.2949986 128.37871819 -3.29590702 126.0742197 C-3.29872684 124.98045017 -3.30154667 123.88668064 -3.30445194 122.75976658 C-3.30242771 121.54933689 -3.30040348 120.3389072 -3.29831791 119.09179783 C-3.30007023 117.82529392 -3.30182255 116.55879002 -3.30362797 115.2539072 C-3.30820182 111.77052963 -3.30641294 108.28718155 -3.30324888 104.80380344 C-3.30072503 101.16607678 -3.30306289 97.52835271 -3.30463505 93.89062595 C-3.30645667 87.78059528 -3.30405063 81.67057667 -3.29929447 75.56054783 C-3.29385186 68.48676937 -3.29561452 61.41301974 -3.30112088 54.33924198 C-3.30565221 48.27640886 -3.30630246 42.21358443 -3.30368221 36.15075016 C-3.30211955 32.52505616 -3.30192537 28.89937573 -3.3052187 25.27368259 C-3.30863156 21.23387018 -3.30390734 17.1941078 -3.29831791 13.15429783 C-3.30034214 11.94386814 -3.30236637 10.73343845 -3.30445194 9.48632908 C-3.30163212 8.39255955 -3.29881229 7.29879002 -3.29590702 6.17187595 C-3.29552999 5.21543186 -3.29515297 4.25898777 -3.29476452 3.27356052 C-3.12385828 0.35292558 -2.92152533 0.1657446 0 0 Z M19.83107662 22.12304783 C19.83107662 33.01304783 19.83107662 43.90304783 19.83107662 55.12304783 C48.54107662 55.12304783 77.25107662 55.12304783 106.83107662 55.12304783 C106.83107662 44.56304783 106.83107662 34.00304783 106.83107662 23.12304783 C105.042506 21.3344772 102.62984528 22.00314204 100.24898434 21.99862766 C99.4484161 22.00222294 98.64784786 22.00581821 97.82301998 22.00952244 C96.98406689 22.00937641 96.14511379 22.00923038 95.28073788 22.00907993 C92.49410618 22.00977933 89.70754046 22.01757298 86.92092037 22.02539158 C84.99420871 22.02725566 83.06749657 22.02867961 81.14078426 22.0296793 C76.05920265 22.03350524 70.97764943 22.04333617 65.89607906 22.05438328 C60.71491028 22.06459576 55.53373693 22.06917657 50.352561 22.0742197 C40.17871836 22.08495837 30.00490429 22.10255578 19.83107662 22.12304783 Z " fill="#F6F6F6" transform="translate(1083.1689233779907,9.876952171325684)"/>
<path d="M0 0 C1.6406543 -0.00422974 1.6406543 -0.00422974 3.31445312 -0.00854492 C4.52488281 -0.00652069 5.7353125 -0.00449646 6.98242188 -0.00241089 C8.24892578 -0.00416321 9.51542969 -0.00591553 10.8203125 -0.00772095 C14.30369007 -0.0122948 17.78703815 -0.01050592 21.27041626 -0.00734186 C24.90814293 -0.00481801 28.54586699 -0.00715587 32.18359375 -0.00872803 C38.29362442 -0.01054965 44.40364303 -0.0081436 50.51367188 -0.00338745 C57.58745033 0.00205516 64.66119997 0.0002925 71.73497772 -0.00521386 C77.79781085 -0.00974519 83.86063527 -0.01039543 89.92346954 -0.00777519 C93.54916354 -0.00621253 97.17484397 -0.00601835 100.80053711 -0.00931168 C104.84034952 -0.01272454 108.8801119 -0.00800032 112.91992188 -0.00241089 C114.13035156 -0.00443512 115.34078125 -0.00645935 116.58789062 -0.00854492 C117.68166016 -0.0057251 118.77542969 -0.00290527 119.90234375 0 C120.85878784 0.00037703 121.81523193 0.00075405 122.80065918 0.0011425 C124.95117188 0.12698364 124.95117188 0.12698364 125.95117188 1.12698364 C126.05016711 2.67653923 126.08196712 4.23052037 126.08398438 5.78323364 C126.08527344 6.72296021 126.0865625 7.66268677 126.08789062 8.63088989 C126.08402344 9.61960083 126.08015625 10.60831177 126.07617188 11.62698364 C126.08003906 12.61569458 126.08390625 13.60440552 126.08789062 14.62307739 C126.08595703 16.03266724 126.08595703 16.03266724 126.08398438 17.47073364 C126.08285645 18.33891724 126.08172852 19.20710083 126.08056641 20.10159302 C125.95117188 22.12698364 125.95117188 22.12698364 124.95117188 23.12698364 C123.54705871 23.22245295 122.13817379 23.24886893 120.7308197 23.24723816 C119.8207164 23.24861282 118.9106131 23.24998749 117.97293091 23.25140381 C116.96664642 23.24780853 115.96036194 23.24421326 114.92358398 23.24050903 C113.87005234 23.24065506 112.81652069 23.24080109 111.73106384 23.24095154 C108.23019387 23.2402519 104.72937636 23.23245712 101.22851562 23.22463989 C98.80855844 23.22277589 96.38860088 23.22135191 93.96864319 23.22035217 C87.58502163 23.21652556 81.20142266 23.20669406 74.81781006 23.19564819 C67.16618059 23.18364331 59.51454359 23.17903252 51.86290741 23.17319489 C40.2256465 23.16348238 28.58843519 23.14432681 16.95117188 23.12698364 C16.95117188 51.50698364 16.95117188 79.88698364 16.95117188 109.12698364 C24.73582031 109.11538208 32.52046875 109.10378052 40.54101562 109.09182739 C45.45833416 109.08672083 50.37564945 109.08190707 55.29296875 109.07815552 C63.1063708 109.07216634 70.91976118 109.06506407 78.7331543 109.05154419 C85.02898347 109.04071779 91.32480014 109.03470734 97.62063789 109.0321064 C100.02852132 109.0302517 102.43640402 109.02663024 104.84428215 109.02125359 C108.20406474 109.01404645 111.56379497 109.01299256 114.92358398 109.01345825 C115.92986847 109.00986298 116.93615295 109.0062677 117.97293091 109.00256348 C118.88303421 109.00393814 119.79313751 109.00531281 120.7308197 109.00672913 C121.92408072 109.00534644 121.92408072 109.00534644 123.14144802 109.00393581 C124.95117188 109.12698364 124.95117188 109.12698364 125.95117188 110.12698364 C125.95117188 117.38698364 125.95117188 124.64698364 125.95117188 132.12698364 C82.39117187 132.12698364 38.83117187 132.12698364 -6.04882812 132.12698364 C-6.06945312 110.53260864 -6.09007812 88.93823364 -6.11132812 66.68948364 C-6.12498413 56.44445801 -6.12498413 56.44445801 -6.13891602 45.99246216 C-6.14343262 37.68154907 -6.14343262 37.68154907 -6.14427185 33.79652405 C-6.14581206 31.07071651 -6.14896941 28.34495453 -6.15440369 25.61915588 C-6.16250507 21.5013949 -6.16273572 17.38366858 -6.16235352 13.26589966 C-6.16595162 12.04224229 -6.16954973 10.81858492 -6.17325687 9.55784702 C-6.17187938 8.45652408 -6.17050188 7.35520113 -6.16908264 6.22050476 C-6.17000443 5.25538751 -6.17092623 4.29027025 -6.17187595 3.29590702 C-5.93637273 -0.85523045 -3.61103928 0.00142345 0 0 Z " fill="#E32950" transform="translate(329.048828125,9.873016357421875)"/>
<path d="M0 0 C43.23 0 86.46 0 131 0 C131 43.56 131 87.12 131 132 C123.74 132 116.48 132 109 132 C109 95.7 109 59.4 109 22 C66.43 22.495 66.43 22.495 23 23 C22.67 58.97 22.34 94.94 22 132 C14.74 132 7.48 132 0 132 C0 88.44 0 44.88 0 0 Z " fill="#F1F1F1" transform="translate(627,10)"/>
<path d="M0 0 C7.26 0 14.52 0 22 0 C22 18.15 22 36.3 22 55 C50.71 55 79.42 55 109 55 C108.96038967 37.27354446 108.96038967 37.27354446 108.90991211 19.54711914 C108.90699317 17.33479866 108.90444456 15.12247765 108.90234375 12.91015625 C108.89722778 11.74931519 108.89211182 10.58847412 108.88684082 9.39245605 C108.88665955 7.74811584 108.88665955 7.74811584 108.88647461 6.07055664 C108.884254 5.11347305 108.88203339 4.15638947 108.87974548 3.17030334 C109 1 109 1 110 0 C116.93 0 123.86 0 131 0 C131 43.56 131 87.12 131 132 C123.74 132 116.48 132 109 132 C109 113.85 109 95.7 109 77 C80.29 77 51.58 77 22 77 C22 95.15 22 113.3 22 132 C14.74 132 7.48 132 0 132 C0 88.44 0 44.88 0 0 Z " fill="#F5F5F5" transform="translate(475,10)"/>
<path d="M0 0 C1.21717413 0.00539716 1.21717413 0.00539716 2.45893764 0.01090336 C3.32141833 0.01078282 4.18389902 0.01066229 5.07251549 0.0105381 C7.87769959 0.01128736 10.68281809 0.01891615 13.48799038 0.0267725 C15.21451186 0.02824188 16.94103379 0.02926261 18.66755581 0.02982426 C25.08557202 0.03507759 31.50357871 0.04903867 37.92158413 0.06192875 C52.25595913 0.08255375 66.59033413 0.10317875 81.35908413 0.12442875 C81.35908413 29.16442875 81.35908413 58.20442875 81.35908413 88.12442875 C76.55529604 88.9250601 72.18710907 89.26731504 67.36592007 89.25382328 C66.19899624 89.25645176 66.19899624 89.25645176 65.00849819 89.25913334 C62.45346207 89.26351218 59.89849588 89.26062905 57.34345913 89.25724125 C55.5632059 89.25791515 53.78295276 89.25888591 52.00269985 89.26014042 C48.28066534 89.26161178 44.5586549 89.25947987 40.83662319 89.25479984 C36.05925884 89.24908627 31.28195046 89.25239538 26.50458813 89.25837231 C22.8329771 89.26197894 19.16137945 89.26083915 15.48976803 89.25824451 C13.72745412 89.25757639 11.965139 89.25839969 10.2028265 89.26072407 C7.7467414 89.26325404 5.29074829 89.25940586 2.83467007 89.25382328 C2.10322781 89.25584751 1.37178555 89.25787174 0.61817837 89.25995731 C-4.41237991 89.23869673 -4.41237991 89.23869673 -6.64091587 88.12442875 C-6.66403842 76.79831245 -6.68183051 65.47220172 -6.69272804 54.14606667 C-6.69795707 48.88746211 -6.70505506 43.62887365 -6.71635532 38.37027836 C-6.72718353 33.29989748 -6.73319256 28.22953213 -6.73579311 23.15914059 C-6.73764749 21.22015927 -6.74126832 19.28117884 -6.74664593 17.34220409 C-6.75385547 14.63621115 -6.75490685 11.93028319 -6.75444126 9.22428226 C-6.75803654 8.41436329 -6.76163181 7.60444431 -6.76533604 6.76998234 C-6.7530629 0.22206128 -6.54899402 0.01232616 0 0 Z M27.35908413 34.12442875 C27.35908413 40.72442875 27.35908413 47.32442875 27.35908413 54.12442875 C33.95908413 54.12442875 40.55908413 54.12442875 47.35908413 54.12442875 C47.35908413 47.52442875 47.35908413 40.92442875 47.35908413 34.12442875 C40.75908413 34.12442875 34.15908413 34.12442875 27.35908413 34.12442875 Z " fill="#DB1D45" transform="translate(806.6409158706665,31.875571250915527)"/>
<path d="M0 0 C0.91644287 0.00523682 1.83288574 0.01047363 2.77709961 0.01586914 C3.76645508 0.0190918 4.75581055 0.02231445 5.77514648 0.02563477 C6.81606445 0.03401367 7.85698242 0.04239258 8.92944336 0.05102539 C10.49662109 0.05779297 10.49662109 0.05779297 12.09545898 0.06469727 C14.68600996 0.07652627 17.27644895 0.0930085 19.86694336 0.11352539 C29.49820705 27.70056209 37.12934521 56.05350687 45.38061523 84.0769043 C46.37003524 87.43537067 47.36666111 90.79157679 48.36889648 94.14624023 C48.603526 94.93479904 48.83815552 95.72335785 49.07989502 96.53581238 C49.52020947 98.01523601 49.96259826 99.49404442 50.40740967 100.97212219 C51.86694336 105.88836813 51.86694336 105.88836813 51.86694336 108.11352539 C57.80694336 107.61852539 57.80694336 107.61852539 63.86694336 107.11352539 C71.85282602 81.29018823 71.85282602 81.29018823 79.29833984 55.30737305 C84.41232667 36.79452722 90.07485394 18.42400161 95.86694336 0.11352539 C103.45694336 0.11352539 111.04694336 0.11352539 118.86694336 0.11352539 C116.6209431 10.22052654 116.6209431 10.22052654 115.38647461 14.14477539 C114.97727783 15.46203613 114.97727783 15.46203613 114.55981445 16.8059082 C114.26929199 17.73242188 113.97876953 18.65893555 113.67944336 19.61352539 C111.24154248 27.49914367 108.92497418 35.40381785 106.74194336 43.36352539 C102.2305337 59.72516942 97.21402209 75.93773715 92.27432251 92.17382812 C90.51892257 97.94921052 88.78205795 103.72979146 87.06225586 109.51586914 C86.85013458 110.22847397 86.63801331 110.9410788 86.41946411 111.67527771 C85.44079382 114.96378004 84.46515059 118.25309561 83.49438477 121.54394531 C83.15842285 122.67292236 82.82246094 123.80189941 82.47631836 124.96508789 C82.18724609 125.94300293 81.89817383 126.92091797 81.6003418 127.9284668 C80.86694336 130.11352539 80.86694336 130.11352539 79.86694336 131.11352539 C78.51599354 131.20621538 77.16027245 131.23099865 75.80615234 131.22705078 C74.94533554 131.22697525 74.08451874 131.22689972 73.19761658 131.2268219 C72.26220535 131.22166061 71.32679413 131.21649933 70.36303711 131.21118164 C69.41002213 131.20976669 68.45700714 131.20835175 67.47511292 131.20689392 C64.41819171 131.20127691 61.36134259 131.18872155 58.30444336 131.17602539 C56.23738712 131.17101258 54.17032974 131.1664493 52.10327148 131.16235352 C47.02446748 131.15130195 41.94571766 131.13402594 36.86694336 131.11352539 C33.88521732 124.82232647 31.60995571 118.51911129 29.65209961 111.84399414 C29.36000107 110.86600861 29.06790253 109.88802307 28.76695251 108.88040161 C27.81534481 105.68896101 26.87233199 102.49505171 25.92944336 99.30102539 C25.26523554 97.06739512 24.6005151 94.83391724 23.93530273 92.60058594 C21.90418457 85.77402183 19.88468434 78.94405323 17.86694336 72.11352539 C17.24834671 70.02138653 16.62969605 67.92926363 16.01098633 65.8371582 C13.75348555 58.20185251 11.49716257 50.56620357 9.24707031 42.92871094 C6.14471353 32.40258426 3.01173867 21.88751778 -0.21899414 11.39990234 C-0.46391602 10.60414795 -0.70883789 9.80839355 -0.96118164 8.98852539 C-1.16646484 8.32594727 -1.37174805 7.66336914 -1.58325195 6.98071289 C-2.75590352 2.99827986 -2.75590352 2.99827986 -3.13305664 1.11352539 C-2.13305664 0.11352539 -2.13305664 0.11352539 0 0 Z " fill="#F3F3F3" transform="translate(936.133056640625,9.886474609375)"/>
<path d="M0 0 C17.06300587 -0.02332863 34.12600678 -0.04097899 51.18902493 -0.05181217 C59.11112945 -0.05697521 67.03322409 -0.06401805 74.95532227 -0.07543945 C81.85774637 -0.08538606 88.76016331 -0.09185337 95.66259438 -0.09408849 C99.31960661 -0.09539564 102.97659836 -0.09848174 106.63360405 -0.10573006 C110.70944006 -0.11374348 114.78524013 -0.11399115 118.86108398 -0.11352539 C120.69311119 -0.1189183 120.69311119 -0.1189183 122.56214905 -0.12442017 C123.66577789 -0.1230455 124.76940674 -0.12167084 125.90647888 -0.12025452 C126.87159614 -0.12117631 127.83671339 -0.1220981 128.83107662 -0.12304783 C131 0 131 0 132 1 C132 7.93 132 14.86 132 22 C113.85 22 95.7 22 77 22 C77 58.3 77 94.6 77 132 C69.74 132 62.48 132 55 132 C54.505 78.045 54.505 78.045 54 23 C36.51 23 19.02 23 1 23 C0 22 0 22 -0.11352539 19.86694336 C-0.10828857 18.95050049 -0.10305176 18.03405762 -0.09765625 17.08984375 C-0.09443359 16.10048828 -0.09121094 15.11113281 -0.08789062 14.09179688 C-0.07951172 13.05087891 -0.07113281 12.00996094 -0.0625 10.9375 C-0.05798828 9.89271484 -0.05347656 8.84792969 -0.04882812 7.77148438 C-0.03699913 5.1809334 -0.02051689 2.59049441 0 0 Z " fill="#F3F3F3" transform="translate(21,10)"/>
<path d="M0 0 C0.94254639 -0.00287018 1.88509277 -0.00574036 2.85620117 -0.00869751 C4.83610642 -0.01072627 6.81603227 -0.00528022 8.79589844 0.00732422 C11.80449789 0.02339476 14.81175419 0.00743466 17.8203125 -0.01171875 C19.75521126 -0.00973611 21.69010919 -0.005892 23.625 0 C24.51276123 -0.00607269 25.40052246 -0.01214539 26.31518555 -0.0184021 C32.03182719 0.04510863 37.83997989 0.31305483 42.8125 3.3984375 C46.74525135 8.61151934 46.25100069 15.77523691 46.2109375 21.99609375 C46.21380768 22.98919052 46.21667786 23.98228729 46.21963501 25.00547791 C46.22166655 27.09390843 46.21620077 29.18235838 46.20361328 31.27075195 C46.18752986 34.45502471 46.20350222 37.63803162 46.22265625 40.82226562 C46.22067399 42.85937778 46.21683067 44.89648915 46.2109375 46.93359375 C46.21701019 47.87856216 46.22308289 48.82353058 46.2293396 49.7971344 C46.17017146 55.39457268 45.75981184 59.56598176 42.8125 64.3984375 C37.65323502 68.37655579 31.73139747 67.83312503 25.5 67.796875 C23.86937622 67.80118027 23.86937622 67.80118027 22.20581055 67.80557251 C19.91291786 67.8076093 17.62000765 67.80210646 15.32714844 67.78955078 C11.82447325 67.77349239 8.32295195 67.78941333 4.8203125 67.80859375 C2.58853913 67.80661125 0.35676647 67.80276744 -1.875 67.796875 C-2.91889893 67.80294769 -3.96279785 67.80902039 -5.03833008 67.8152771 C-14.87916373 67.72043616 -14.87916373 67.72043616 -19.1875 64.3984375 C-22.68745597 58.68987907 -22.62704442 53.24561437 -22.5859375 46.6796875 C-22.59024277 45.15462585 -22.59024277 45.15462585 -22.59463501 43.59875488 C-22.59666908 41.4572697 -22.59118539 39.31576565 -22.57861328 37.17431641 C-22.56255075 33.90875442 -22.57848488 30.64443004 -22.59765625 27.37890625 C-22.5956737 25.29166395 -22.59182979 23.20442242 -22.5859375 21.1171875 C-22.59504654 19.66221863 -22.59504654 19.66221863 -22.6043396 18.17785645 C-22.54634323 12.54868764 -22.38691045 8.13660106 -19.1875 3.3984375 C-13.31823426 -0.03042632 -6.61474827 -0.0452479 0 0 Z M-8.1875 13.3984375 C-8.1875 26.9284375 -8.1875 40.4584375 -8.1875 54.3984375 C5.0125 54.3984375 18.2125 54.3984375 31.8125 54.3984375 C31.8125 40.8684375 31.8125 27.3384375 31.8125 13.3984375 C18.6125 13.3984375 5.4125 13.3984375 -8.1875 13.3984375 Z " fill="#EEEEEE" transform="translate(789.1875,190.6015625)"/>
<path d="M0 0 C0.90098419 -0.00428513 1.80196838 -0.00857025 2.73025513 -0.01298523 C4.62794152 -0.01870356 6.52564983 -0.0192473 8.42333984 -0.01489258 C11.304748 -0.0117358 14.18512495 -0.03521206 17.06640625 -0.06054688 C18.91926955 -0.06282066 20.77213558 -0.063523 22.625 -0.0625 C23.47528778 -0.07170975 24.32557556 -0.08091949 25.20162964 -0.09040833 C30.83594306 -0.04748386 36.43852058 0.51388561 41.4453125 3.30078125 C44.31363286 7.63326969 44.83059537 12.16367627 44.4453125 17.30078125 C36.01674107 20.72935268 36.01674107 20.72935268 31.4453125 20.30078125 C31.4453125 17.99078125 31.4453125 15.68078125 31.4453125 13.30078125 C18.5753125 13.30078125 5.7053125 13.30078125 -7.5546875 13.30078125 C-7.5546875 26.83078125 -7.5546875 40.36078125 -7.5546875 54.30078125 C5.3153125 54.30078125 18.1853125 54.30078125 31.4453125 54.30078125 C31.4453125 49.68078125 31.4453125 45.06078125 31.4453125 40.30078125 C24.5153125 40.30078125 17.5853125 40.30078125 10.4453125 40.30078125 C10.4453125 36.34078125 10.4453125 32.38078125 10.4453125 28.30078125 C21.6653125 28.30078125 32.8853125 28.30078125 44.4453125 28.30078125 C44.5071875 32.94140625 44.5690625 37.58203125 44.6328125 42.36328125 C44.67378052 44.53869507 44.67378052 44.53869507 44.71557617 46.75805664 C44.79688668 59.34719677 44.79688668 59.34719677 41.4453125 64.30078125 C36.0174745 67.97812516 30.84659836 67.72199877 24.53515625 67.6640625 C23.49009415 67.664561 22.44503204 67.66505951 21.36830139 67.66557312 C19.16535535 67.66323872 16.96240633 67.65354773 14.75952148 67.63696289 C11.39087045 67.61333776 8.02300993 67.6164112 4.65429688 67.62304688 C2.51041196 67.6174707 0.36653036 67.6103612 -1.77734375 67.6015625 C-2.7826564 67.60247391 -3.78796906 67.60338531 -4.82374573 67.60432434 C-6.23562416 67.59002632 -6.23562416 67.59002632 -7.67602539 67.57543945 C-8.91129723 67.56852837 -8.91129723 67.56852837 -10.17152405 67.56147766 C-12.94871365 67.25767837 -15.05027431 66.53102018 -17.5546875 65.30078125 C-21.4976192 59.99106002 -21.00572296 54.10168115 -20.98828125 47.76953125 C-20.99614403 46.1056134 -20.99614403 46.1056134 -21.00416565 44.40808105 C-21.010575 42.06812373 -21.00926299 39.72813414 -21.00073242 37.38818359 C-20.99221635 33.81289245 -21.02101115 30.23919622 -21.05273438 26.6640625 C-21.0543464 24.38671923 -21.05376883 22.10937313 -21.05078125 19.83203125 C-21.06201523 18.76625854 -21.07324921 17.70048584 -21.08482361 16.60241699 C-21.03029299 10.78230547 -20.88891321 6.63104956 -16.5546875 2.30078125 C-11.1575127 -0.02083142 -5.77990208 -0.00616601 0 0 Z " fill="#EBEBEB" transform="translate(899.5546875,190.69921875)"/>
<path d="M0 0 C0.94254639 -0.00287018 1.88509277 -0.00574036 2.85620117 -0.00869751 C4.83610642 -0.01072627 6.81603227 -0.00528022 8.79589844 0.00732422 C11.80449789 0.02339476 14.81175419 0.00743466 17.8203125 -0.01171875 C19.75521126 -0.00973611 21.69010919 -0.005892 23.625 0 C24.51276123 -0.00607269 25.40052246 -0.01214539 26.31518555 -0.0184021 C32.07941611 0.04563733 37.73525504 0.43500919 42.8125 3.3984375 C46.57977921 8.94824554 46.25085686 14.83044266 46.2109375 21.37109375 C46.21380768 22.41236923 46.21667786 23.45364471 46.21963501 24.526474 C46.22166921 26.71923367 46.21618458 28.91201175 46.20361328 31.10473633 C46.18753474 34.45370137 46.20349284 37.80146258 46.22265625 41.15039062 C46.22067402 43.28646099 46.21683077 45.4225306 46.2109375 47.55859375 C46.21701019 48.55560806 46.22308289 49.55262238 46.2293396 50.57984924 C46.17616307 55.85420736 46.0549991 59.99937004 42.8125 64.3984375 C37.55796689 68.31761583 31.77966348 67.8334058 25.5 67.796875 C23.86937622 67.80118027 23.86937622 67.80118027 22.20581055 67.80557251 C19.91291786 67.8076093 17.62000765 67.80210646 15.32714844 67.78955078 C11.82447325 67.77349239 8.32295195 67.78941333 4.8203125 67.80859375 C2.58853913 67.80661125 0.35676647 67.80276744 -1.875 67.796875 C-2.91889893 67.80294769 -3.96279785 67.80902039 -5.03833008 67.8152771 C-10.43466545 67.76326997 -14.63524283 67.64624133 -19.1875 64.3984375 C-21.17982884 61.27494374 -21.4399512 58.80939404 -21.44628906 55.14257812 C-21.45259338 54.09469116 -21.45889771 53.0468042 -21.46539307 51.96716309 C-21.4613446 50.84104614 -21.45729614 49.7149292 -21.453125 48.5546875 C-21.45503845 47.3934436 -21.4569519 46.23219971 -21.45892334 45.0357666 C-21.46028396 42.58129662 -21.45659614 40.12681942 -21.44824219 37.67236328 C-21.43754123 33.91292168 -21.44814196 30.15395796 -21.4609375 26.39453125 C-21.45961588 24.01041561 -21.45705345 21.62630027 -21.453125 19.2421875 C-21.45717346 18.11607056 -21.46122192 16.98995361 -21.46539307 15.82971191 C-21.45908875 14.78182495 -21.45278442 13.73393799 -21.44628906 12.65429688 C-21.44469788 11.73370483 -21.44310669 10.81311279 -21.44146729 9.86462402 C-21.16498971 7.17984806 -20.72405061 5.6156474 -19.1875 3.3984375 C-13.32840578 0.04739918 -6.56951528 -0.04493849 0 0 Z M-8.1875 13.3984375 C-8.1875 26.9284375 -8.1875 40.4584375 -8.1875 54.3984375 C-1.608125 54.4190625 4.97125 54.4396875 11.75 54.4609375 C13.82917725 54.4700415 15.90835449 54.47914551 18.05053711 54.48852539 C19.68863866 54.49144451 21.32674094 54.49399308 22.96484375 54.49609375 C23.82339966 54.50120972 24.68195557 54.50632568 25.56652832 54.51159668 C27.64886052 54.5119066 29.7311036 54.46085926 31.8125 54.3984375 C33.25174868 53.18771954 33.25174868 53.18771954 32.92602539 49.61303711 C32.92577425 47.92561022 32.92021112 46.2381782 32.91015625 44.55078125 C32.90914917 43.76546021 32.90814209 42.98013916 32.90710449 42.17102051 C32.90185638 39.22597807 32.88789523 36.28095638 32.875 33.3359375 C32.854375 26.7565625 32.83375 20.1771875 32.8125 13.3984375 C19.2825 13.3984375 5.7525 13.3984375 -8.1875 13.3984375 Z " fill="#EFEFEF" transform="translate(588.1875,190.6015625)"/>
<path d="M0 0 C0.77255127 -0.00191345 1.54510254 -0.0038269 2.34106445 -0.00579834 C3.96468433 -0.00715149 5.58831535 -0.00351623 7.21191406 0.00488281 C9.6805885 0.01559501 12.14853538 0.00495808 14.6171875 -0.0078125 C16.20312659 -0.00649075 17.78906523 -0.00392804 19.375 0 C20.10436768 -0.00404846 20.83373535 -0.00809692 21.58520508 -0.01226807 C26.85953206 0.03539518 32.1905672 0.43454095 36.5625 3.640625 C39.41157889 7.75596117 38.76768478 12.45453834 38.6875 17.265625 C37.44086669 17.77396091 36.19000613 18.27193645 34.9375 18.765625 C34.24140625 19.0440625 33.5453125 19.3225 32.828125 19.609375 C30.6875 20.265625 30.6875 20.265625 26.6875 20.265625 C26.6875 17.955625 26.6875 15.645625 26.6875 13.265625 C15.4675 13.265625 4.2475 13.265625 -7.3125 13.265625 C-7.3125 17.555625 -7.3125 21.845625 -7.3125 26.265625 C-6.18755127 26.25515137 -5.06260254 26.24467773 -3.90356445 26.23388672 C0.2803223 26.19761654 4.46419521 26.17469898 8.64819336 26.15576172 C10.45713643 26.14572013 12.26606333 26.1320842 14.07495117 26.11474609 C16.67891435 26.09041668 19.28266242 26.07912339 21.88671875 26.0703125 C22.69211594 26.05998993 23.49751312 26.04966736 24.32731628 26.03903198 C28.55231838 26.03819265 31.87042797 26.2247246 35.6875 28.265625 C40.66534985 33.4212552 39.89815162 40.4218893 39.9375 47.140625 C39.958125 48.01332031 39.97875 48.88601562 40 49.78515625 C40.03360632 55.3722066 39.62348472 59.44222153 36.6875 64.265625 C31.52308776 67.69750241 26.92216849 67.70497899 20.94140625 67.6640625 C20.01206772 67.66693268 19.08272919 67.66980286 18.12522888 67.67276001 C16.16608061 67.67479515 14.20691177 67.6693039 12.24780273 67.65673828 C9.26304247 67.6406951 6.27963997 67.65659641 3.29492188 67.67578125 C1.3854137 67.67379837 -0.52409363 67.66995375 -2.43359375 67.6640625 C-3.76202553 67.67317154 -3.76202553 67.67317154 -5.11729431 67.6824646 C-10.5916762 67.62090866 -14.46983827 66.87887244 -19.3125 64.265625 C-22.3199232 59.9506265 -21.48936656 54.32597383 -21.3125 49.265625 C-17.66715276 47.65738357 -14.27752948 46.71619653 -10.3125 46.265625 C-9.3125 47.265625 -9.3125 47.265625 -9.3125 54.265625 C2.8975 54.265625 15.1075 54.265625 27.6875 54.265625 C27.6875 49.645625 27.6875 45.025625 27.6875 40.265625 C26.06122681 40.28919067 26.06122681 40.28919067 24.40209961 40.31323242 C20.35611483 40.36778407 16.31016218 40.40206633 12.26391602 40.43041992 C10.5171155 40.44544929 8.77035235 40.46587854 7.02368164 40.49194336 C4.50397485 40.5285858 1.98476961 40.54540992 -0.53515625 40.55859375 C-1.6949575 40.58181953 -1.6949575 40.58181953 -2.87818909 40.60551453 C-8.09324701 40.6071109 -11.74883217 39.87419581 -16.3125 37.265625 C-20.48886198 32.14564538 -19.79154682 26.63191087 -19.75 20.328125 C-19.76998047 19.25626953 -19.78996094 18.18441406 -19.81054688 17.08007812 C-19.80763739 12.3812568 -19.62425104 8.97721399 -17.72265625 4.63671875 C-12.88459493 -0.12292991 -6.46882492 -0.03590616 0 0 Z " fill="#EBEBEB" transform="translate(1167.3125,190.734375)"/>
<path d="M0 0 C9 0 9 0 11.22120667 1.12545776 C11.73416794 1.65237213 12.24712921 2.1792865 12.77563477 2.72216797 C13.67554893 3.61341873 13.67554893 3.61341873 14.59364319 4.52267456 C15.203405 5.17261383 15.81316681 5.8225531 16.44140625 6.4921875 C17.09455307 7.1533255 17.74769989 7.8144635 18.42063904 8.49563599 C20.4899065 10.60185659 22.52524813 12.73784745 24.5625 14.875 C25.96481774 16.30532848 27.3690965 17.73373715 28.77539062 19.16015625 C30.10329451 20.5191431 31.42952793 21.87976464 32.75390625 23.2421875 C33.38188614 23.88807831 34.00986603 24.53396912 34.65687561 25.19943237 C39 29.76214069 39 29.76214069 39 32 C39.58394531 32.24621094 40.16789062 32.49242187 40.76953125 32.74609375 C43.34537822 34.19416183 44.79650568 35.80233108 46.6875 38.0625 C47.28949219 38.77535156 47.89148438 39.48820312 48.51171875 40.22265625 C49.24841797 41.10244141 49.24841797 41.10244141 50 42 C50.33 42.33 50.66 42.66 51 43 C51.03758423 41.09939819 51.03758423 41.09939819 51.07592773 39.16040039 C51.16981996 34.47702221 51.27008435 29.7937987 51.37231445 25.1105957 C51.41573241 23.08035896 51.45740226 21.05008408 51.49731445 19.01977539 C51.55485146 16.10811849 51.61859278 13.19665486 51.68359375 10.28515625 C51.70866249 8.91485008 51.70866249 8.91485008 51.73423767 7.51686096 C51.88612829 1.11387171 51.88612829 1.11387171 53 0 C56.63 0 60.26 0 64 0 C64 22.11 64 44.22 64 67 C55 67 55 67 52.63607788 65.72509766 C51.76506943 64.82863525 51.76506943 64.82863525 50.87646484 63.9140625 C50.19901215 63.23915771 49.52155945 62.56425293 48.82357788 61.86889648 C48.12640656 61.12841064 47.42923523 60.3879248 46.7109375 59.625 C45.96341217 58.86711182 45.21588684 58.10922363 44.44570923 57.32836914 C42.0668664 54.90593113 39.72137271 52.45385856 37.375 50 C35.79110889 48.37950772 34.20518934 46.76099543 32.6171875 45.14453125 C29.68741567 42.14838175 26.76464693 39.14618425 23.86474609 36.12109375 C23.28566498 35.5170874 22.70658386 34.91308105 22.10995483 34.29077148 C19.00623734 30.92107493 16.01677895 27.44774737 13 24 C12.67 38.19 12.34 52.38 12 67 C8.04 67 4.08 67 0 67 C0 44.89 0 22.78 0 0 Z " fill="#EEEEEE" transform="translate(457,191)"/>
<path d="M0 0 C1.093125 0.00257813 2.18625 0.00515625 3.3125 0.0078125 C4.405625 0.00523437 5.49875 0.00265625 6.625 0 C9.3125 0.1328125 9.3125 0.1328125 10.3125 1.1328125 C10.39987645 2.98650861 10.41948153 4.84348791 10.41015625 6.69921875 C10.40765869 7.71185791 10.40516113 8.72449707 10.40258789 9.76782227 C10.39348389 11.06389404 10.38437988 12.35996582 10.375 13.6953125 C10.3440625 19.851875 10.3440625 19.851875 10.3125 26.1328125 C22.8525 26.1328125 35.3925 26.1328125 48.3125 26.1328125 C48.2729086 17.95028453 48.2729086 17.95028453 48.22241211 9.76782227 C48.21991455 8.75518311 48.21741699 7.74254395 48.21484375 6.69921875 C48.20960693 5.65709229 48.20437012 4.61496582 48.19897461 3.54125977 C48.3125 1.1328125 48.3125 1.1328125 49.3125 0.1328125 C53.2725 0.1328125 57.2325 0.1328125 61.3125 0.1328125 C61.3125 22.2428125 61.3125 44.3528125 61.3125 67.1328125 C57.0225 67.1328125 52.7325 67.1328125 48.3125 67.1328125 C48.3125 57.8928125 48.3125 48.6528125 48.3125 39.1328125 C35.7725 39.1328125 23.2325 39.1328125 10.3125 39.1328125 C10.3125 48.3728125 10.3125 57.6128125 10.3125 67.1328125 C5.6925 67.1328125 1.0725 67.1328125 -3.6875 67.1328125 C-3.71005359 58.54475139 -3.72841657 49.95671314 -3.73931217 41.36863041 C-3.74454036 37.3812405 -3.75163684 33.39387183 -3.76293945 29.40649414 C-3.77377061 25.56156136 -3.77977732 21.71664905 -3.78237724 17.87170219 C-3.78423108 16.40162267 -3.78785091 14.93154432 -3.79323006 13.46147346 C-3.80044355 11.40926783 -3.80149081 9.35714783 -3.80102539 7.30493164 C-3.803246 6.13466934 -3.80546661 4.96440704 -3.80775452 3.75868225 C-3.64421523 0.18764907 -3.57632063 0.17673678 0 0 Z " fill="#EFEFEF" transform="translate(348.6875,190.8671875)"/>
<path d="M0 0 C18.48 0 36.96 0 56 0 C56.93391785 4.66958927 56.80917656 7.41466617 56 12 C51.02758997 12.81213477 46.2100751 13.14783445 41.16796875 13.1328125 C40.45014725 13.13376923 39.73232574 13.13472595 38.99275208 13.13571167 C37.48938915 13.13638732 35.98602321 13.13457629 34.48266602 13.13037109 C32.17652941 13.12497433 29.87058407 13.13035701 27.56445312 13.13671875 C26.0989579 13.13605863 24.6334628 13.13477884 23.16796875 13.1328125 C22.47841599 13.13483673 21.78886322 13.13686096 21.07841492 13.13894653 C16.22997931 13.11498966 16.22997931 13.11498966 14 12 C14 16.62 14 21.24 14 26 C21.92 26 29.84 26 38 26 C38 29.96 38 33.92 38 38 C30.08 38 22.16 38 14 38 C14 43.28 14 48.56 14 54 C28.19 54 42.38 54 57 54 C57 58.29 57 62.58 57 67 C38.19 67 19.38 67 0 67 C0 44.89 0 22.78 0 0 Z " fill="#ECECEC" transform="translate(143,191)"/>
<path d="M0 0 C1.18925079 -0.00855011 1.18925079 -0.00855011 2.40252686 -0.01727295 C4.07676878 -0.0266929 5.751029 -0.03324495 7.42529297 -0.03710938 C9.96225071 -0.04679057 12.49838912 -0.07783175 15.03515625 -0.109375 C30.92541969 -0.21675753 30.92541969 -0.21675753 37.734375 3.203125 C40.24849196 7.09924134 39.96247291 10.96440073 39.859375 15.453125 C39.85035156 16.19820312 39.84132813 16.94328125 39.83203125 17.7109375 C39.80855858 19.54180559 39.77269025 21.37250738 39.734375 23.203125 C34.84564018 24.76752014 32.12714914 25.203125 26.734375 25.203125 C26.734375 21.243125 26.734375 17.283125 26.734375 13.203125 C15.844375 13.203125 4.954375 13.203125 -6.265625 13.203125 C-6.265625 26.733125 -6.265625 40.263125 -6.265625 54.203125 C4.624375 54.203125 15.514375 54.203125 26.734375 54.203125 C26.734375 49.583125 26.734375 44.963125 26.734375 40.203125 C31.11945441 40.72338866 35.40935595 41.30176376 39.734375 42.203125 C39.81558251 45.09952618 39.87496921 47.99363412 39.921875 50.890625 C39.94701172 51.70724609 39.97214844 52.52386719 39.99804688 53.36523438 C40.05544548 58.09105297 40.00832296 61.488863 36.734375 65.203125 C32.04256395 67.79497684 27.26375958 67.5092092 22.05078125 67.50390625 C21.1176561 67.50819138 20.18453094 67.5124765 19.22312927 67.51689148 C17.25382293 67.5226227 15.28449543 67.52314396 13.31518555 67.51879883 C10.31066602 67.5156395 7.30713225 67.53911098 4.30273438 67.56445312 C2.3854179 67.56672638 0.4680988 67.56742949 -1.44921875 67.56640625 C-2.34313828 67.575616 -3.2370578 67.58482574 -4.1580658 67.59431458 C-9.21598197 67.55700003 -13.00411857 67.2400749 -17.265625 64.203125 C-18.97878935 60.75743346 -19.51735464 57.94959812 -19.52441406 54.125 C-19.53387054 52.64821777 -19.53387054 52.64821777 -19.54351807 51.14160156 C-19.5394696 50.0894043 -19.53542114 49.03720703 -19.53125 47.953125 C-19.53316345 46.86225586 -19.5350769 45.77138672 -19.53704834 44.64746094 C-19.53840744 42.34439869 -19.53473021 40.04132871 -19.52636719 37.73828125 C-19.51566403 34.21597055 -19.52627204 30.69416987 -19.5390625 27.171875 C-19.53774086 24.93229054 -19.53517836 22.6927064 -19.53125 20.453125 C-19.53529846 19.40092773 -19.53934692 18.34873047 -19.54351807 17.26464844 C-19.53721375 16.28012695 -19.53090942 15.29560547 -19.52441406 14.28125 C-19.52282288 13.41918945 -19.52123169 12.55712891 -19.51959229 11.66894531 C-19.13300166 7.91545787 -18.18454099 5.09035423 -15.453125 2.453125 C-10.6804878 -0.27409626 -5.36213376 0.03017174 0 0 Z " fill="#EDEDED" transform="translate(260.265625,190.796875)"/>
<path d="M0 0 C9.054375 -0.020625 18.10875 -0.04125 27.4375 -0.0625 C30.29978271 -0.071604 33.16206543 -0.08070801 36.11108398 -0.09008789 C38.36442009 -0.09300682 40.61775673 -0.09555543 42.87109375 -0.09765625 C44.05352661 -0.10277222 45.23595947 -0.10788818 46.45422363 -0.11315918 C47.57075317 -0.11328003 48.68728271 -0.11340088 49.83764648 -0.11352539 C50.81249496 -0.115746 51.78734344 -0.11796661 52.79173279 -0.12025452 C55 0 55 0 56 1 C56 4.63 56 8.26 56 12 C35.21 12.495 35.21 12.495 14 13 C13.67 17.29 13.34 21.58 13 26 C21.25 26 29.5 26 38 26 C38 29.96 38 33.92 38 38 C30.08 38.33 22.16 38.66 14 39 C13.67 43.95 13.34 48.9 13 54 C27.19 54 41.38 54 56 54 C56 58.29 56 62.58 56 67 C37.52 67 19.04 67 0 67 C0 44.89 0 22.78 0 0 Z " fill="#EBEBEB" transform="translate(1049,191)"/>
<path d="M0 0 C20.79 0 41.58 0 63 0 C63 4.29 63 8.58 63 13 C54.75 13 46.5 13 38 13 C38 30.82 38 48.64 38 67 C33.71 67 29.42 67 25 67 C25 49.18 25 31.36 25 13 C16.75 13 8.5 13 0 13 C0 8.71 0 4.42 0 0 Z " fill="#EDEDED" transform="translate(46,191)"/>
<path d="M0 0 C1.093125 0.00257813 2.18625 0.00515625 3.3125 0.0078125 C4.405625 0.00523437 5.49875 0.00265625 6.625 0 C9.3125 0.1328125 9.3125 0.1328125 10.3125 1.1328125 C10.40596915 2.79019693 10.42994977 4.45155894 10.42602539 6.11157227 C10.42594986 7.17259659 10.42587433 8.23362091 10.42579651 9.32679749 C10.42063522 10.4809465 10.41547394 11.63509552 10.41015625 12.82421875 C10.4087413 13.99919418 10.40732635 15.17416962 10.40586853 16.38475037 C10.40024992 20.15496314 10.38769426 23.92511754 10.375 27.6953125 C10.3699874 30.24413977 10.36542408 32.79296797 10.36132812 35.34179688 C10.35112331 41.60550959 10.33155152 47.86909534 10.3125 54.1328125 C23.5125 54.1328125 36.7125 54.1328125 50.3125 54.1328125 C50.3125 58.4228125 50.3125 62.7128125 50.3125 67.1328125 C32.4925 67.1328125 14.6725 67.1328125 -3.6875 67.1328125 C-3.72760881 50.70157028 -3.72760881 50.70157028 -3.73632812 43.72070312 C-3.7423159 38.94928888 -3.74941446 34.17789375 -3.76293945 29.40649414 C-3.77377061 25.56156136 -3.77977732 21.71664905 -3.78237724 17.87170219 C-3.78423108 16.40162267 -3.78785091 14.93154432 -3.79323006 13.46147346 C-3.80044355 11.40926783 -3.80149081 9.35714783 -3.80102539 7.30493164 C-3.803246 6.13466934 -3.80546661 4.96440704 -3.80775452 3.75868225 C-3.64421523 0.18764907 -3.57632063 0.17673678 0 0 Z " fill="#E8E8E8" transform="translate(682.6875,190.8671875)"/>
<path d="M0 0 C4.29 0 8.58 0 13 0 C13.7814466 3.907233 14.12630595 6.91831803 14.12939453 10.82836914 C14.13254669 11.97628433 14.13569885 13.12419952 14.13894653 14.30690002 C14.1369223 15.53722458 14.13489807 16.76754913 14.1328125 18.03515625 C14.13376923 19.30596542 14.13472595 20.5767746 14.13571167 21.88609314 C14.13639161 24.57001161 14.13505383 27.25383875 14.13037109 29.93774414 C14.1246684 33.37310722 14.12796016 36.80839225 14.13394356 40.24375248 C14.13843033 43.52838985 14.1352872 46.81301786 14.1328125 50.09765625 C14.13483673 51.33000504 14.13686096 52.56235382 14.13894653 53.83204651 C14.13579437 54.97680954 14.13264221 56.12157257 14.12939453 57.30102539 C14.12859894 58.30742569 14.12780334 59.31382599 14.12698364 60.35072327 C14 63 14 63 13 67 C8.71 67 4.42 67 0 67 C0 44.89 0 22.78 0 0 Z " fill="#ECECEC" transform="translate(989,191)"/>
</svg>
